<svg xmlns="http://www.w3.org/2000/svg" xmlns:xlink="http://www.w3.org/1999/xlink" viewBox="0,0,256,256" width="250px" height="250px" fill-rule="nonzero"><g fill="#1a1718" fill-rule="nonzero" stroke="none" stroke-width="1" stroke-linecap="butt" stroke-linejoin="miter" stroke-miterlimit="10" stroke-dasharray="" stroke-dashoffset="0" font-family="none" font-weight="none" font-size="none" text-anchor="none" style="mix-blend-mode: normal"><g transform="scale(5.12,5.12)"><path d="M38.5,6c-3.03906,0 -5.5,2.46094 -5.5,5.5c0,3.29297 2.44531,4.88672 4,5.5c3.10938,1.22656 4.9375,2.04297 5.65234,3h-1.65234c-0.21875,0 -0.43359,0.07422 -0.60937,0.20703c-2.39453,1.83984 -7.37891,3.79297 -11.89062,3.79297h-12.5c-1.66406,0 -3.10547,0.53516 -4.16016,1.4375c-0.04297,-0.30078 -0.07812,-0.59375 -0.14844,-0.90234c-0.23437,-1.03516 -0.625,-2.11719 -1.36719,-3.00391c-0.74219,-0.88672 -1.90625,-1.53125 -3.32422,-1.53125c-1.76953,0 -2.9375,1.06641 -3.44531,2.03125c-0.51172,0.96875 -0.55469,1.91406 -0.55469,1.91406v0.05469c0,1.70703 0.57031,3.09766 1.41406,4.17969c0.84766,1.08203 1.93359,1.875 3.00781,2.63672c1.32031,0.92969 1.96875,1.78906 2.13281,2.10547c-0.12109,0.03516 -0.16406,0.07813 -0.55469,0.07813c-0.35937,-0.00391 -0.69531,0.18359 -0.87891,0.49609c-0.17969,0.3125 -0.17969,0.69531 0,1.00781c0.18359,0.3125 0.51953,0.5 0.87891,0.49609c0.81641,0 1.48828,-0.08984 2.0625,-0.53125c0.35938,-0.27734 0.54688,-0.72656 0.60938,-1.17969c0.48438,0.53125 1.0625,1.04297 1.75391,1.52734c1.6875,1.1875 3.68359,1.85938 6.16797,2.08594c-0.30469,0.36328 -0.50781,0.8125 -0.5625,1.30859c-2.98828,0.51953 -5.03125,1.97656 -5.03125,3.78906v1h15v-1c0,-1.8125 -2.04297,-3.26953 -5.03125,-3.78906c-0.05859,-0.51172 -0.26562,-0.97266 -0.58594,-1.33984c4.94922,-0.49609 8.46875,-2.83984 13.28516,-7.12109c0.75391,-0.67578 1.52344,-1.39844 2.30078,-2.125c2.51953,-2.35937 5.12109,-4.80078 7.39844,-5.69141c0.44531,-0.17969 0.70703,-0.64453 0.61719,-1.12109c-0.08984,-0.46875 -0.50391,-0.8125 -0.98437,-0.8125h-1.10156c-0.25781,-1.41797 -1.10937,-3.01562 -3.19922,-4.03125c-0.67187,-0.32812 -1.33984,-0.64844 -1.94922,-0.98047c-1.46875,-0.79687 -2.62109,-1.64844 -2.73047,-2.78906c-0.01172,-0.05859 -0.01953,-0.12891 -0.01953,-0.19922c0,-0.55078 0.44922,-1 1,-1c0,0.67969 0.23047,1.30078 0.59766,1.80078c0.55078,0.73047 1.42188,1.19922 2.40234,1.19922c0.91016,0 1.73047,-0.41016 2.26953,-1.05078c0.37891,-0.57031 0.62109,-1.23828 0.69922,-1.94922c0.01172,-0.07031 0.03125,-0.39844 0.03125,-0.5c0,-2.48828 -2.01172,-4.5 -4.5,-4.5zM21.5,14c-1.37891,0 -2.5,1.12109 -2.5,2.5c0,0.67188 0.27344,1.3125 0.75,1.78125c-1.77734,0.56641 -3.5,1.92969 -4.86719,3.71875h13.23437c-1.36719,-1.78906 -3.08594,-3.15234 -4.86719,-3.71875c0.48047,-0.46875 0.75,-1.10937 0.75,-1.78125c0,-1.37891 -1.12109,-2.5 -2.5,-2.5zM7,22c0.87109,0 1.35547,0.29688 1.78906,0.81641c0.4375,0.51953 0.76172,1.31641 0.95313,2.16406c0.38672,1.6875 0.26172,3.45703 0.26172,3.45703c-0.01562,0.13672 -0.00391,0.27734 0.03516,0.40625c-0.02344,0.21484 -0.03906,0.43359 -0.03906,0.65625c0,0.29688 0.03906,0.58984 0.09375,0.87891c-0.4375,-0.39062 -0.93359,-0.78125 -1.51562,-1.19531c-1.05078,-0.73828 -1.96484,-1.44531 -2.58594,-2.23828c-0.61719,-0.78516 -0.98047,-1.64453 -0.98437,-2.91406c0,-0.02344 0.03906,-0.54297 0.3125,-1.0625c0.28125,-0.53516 0.61719,-0.96875 1.67969,-0.96875z"></path></g></g></svg>